<svg width="17" height="17" fill="none" xmlns="http://www.w3.org/2000/svg"><path fill-rule="evenodd" clip-rule="evenodd" d="M2.388.934A1.455 1.455 0 00.934 2.388V15.48a1.454 1.454 0 001.454 1.454H15.48a1.455 1.455 0 001.455-1.454v-5.09a.727.727 0 10-1.455 0v5.09H2.389V2.389h5.09a.727.727 0 100-1.455h-5.09zm14.333.212a.727.727 0 01.213.51v4.368a.727.727 0 11-1.455 0V3.416l-7.485 7.487a.729.729 0 01-1.03-1.03l7.487-7.485h-2.608a.727.727 0 110-1.454h4.363a.726.726 0 01.515.212z" fill="#333"/></svg>