<svg width="167" height="92" fill="none" xmlns="http://www.w3.org/2000/svg"><path d="M166.484 45c0 5.91-2.14 11.761-6.298 17.22-4.159 5.46-10.253 10.421-17.937 14.6-7.683 4.178-16.804 7.493-26.843 9.755C105.367 88.836 94.608 90 83.742 90c-10.866 0-21.625-1.164-31.664-3.425-10.039-2.262-19.16-5.577-26.844-9.755-7.683-4.179-13.778-9.14-17.936-14.6C3.14 56.762 1 50.91 1 45h165.484zM3.874 20.652h1.508V12.54h3.484v-1.352H.39v1.352h3.484v8.112zm6.29 0h1.509v-4.056h6.682v-1.352h-6.682V12.54h6.786v-1.352h-8.32v5.408l.026 4.056zM35.06 39.791c8.16 0 15.04-6.8 15.04-14.96H35.06v4.16h9.52c-1.52 3.84-5.12 6.56-9.52 6.56-5.92 0-10.32-4.8-10.32-10.72 0-5.92 4.4-10.72 10.32-10.72 3.04 0 5.6 1.2 7.44 3.2l3.2-3.2c-2.64-2.56-6.24-4.24-10.64-4.24-8.24 0-15.12 6.72-15.12 14.96 0 8.88 6.24 14.96 15.12 14.96zm26.245 0c2.08 0 3.92-.72 4.96-1.84v1.44h4.4v-8.32c0-5.2-3.76-8.72-8.96-8.72-4.8 0-8.96 3.92-8.96 8.72 0 5.2 3.52 8.72 8.56 8.72zm.4-4.16c-2.56 0-4.48-2-4.48-4.56 0-2.64 1.92-4.56 4.48-4.56 2.64 0 4.48 1.92 4.48 4.56 0 2.56-1.84 4.56-4.48 4.56zm13.286 3.76h4.48v-10.4c0-1.28.88-2.08 2.08-2.08h1.28v-4.16h-1.6c-3.6 0-6.24 2.56-6.24 6.24v10.4zm19.683.4c4.8 0 8.96-3.92 8.96-8.72v-20.8h-4.48v13.52c-1.44-1.04-3.04-1.44-4.72-1.44-4.72 0-8.72 3.92-8.72 8.72 0 5.2 3.76 8.72 8.96 8.72zm0-4.16c-2.56 0-4.48-2-4.48-4.56 0-2.64 1.92-4.56 4.48-4.56 2.64 0 4.48 1.92 4.48 4.56 0 2.56-1.84 4.56-4.48 4.56zm21.914 4.16c2.4 0 4.56-.96 6.16-2.56l-2.72-2.8c-1.2 1.12-2 1.52-3.44 1.52-2.24 0-4-1.36-4.56-3.36h13.52v-1.52c-.32-5.44-3.76-8.72-8.96-8.72-4.8 0-8.96 3.92-8.96 8.72 0 5.2 3.76 8.72 8.96 8.72zm-4.48-10.64c.64-1.84 2.24-3.2 4.48-3.2 2.32 0 3.92 1.28 4.56 3.2h-9.04zm17.023 10.24h4.48v-8.32c0-2.64 1.92-4.56 4.48-4.56 2.64 0 4.48 1.92 4.48 4.56v8.32h4.48v-8.32c0-5.2-3.68-8.72-8.88-8.72-4.56 0-9.04 3.52-9.04 8.72v8.32z" fill="#333"/><path d="M33.629 79.304h17.12c4.96 0 8.32-4 8.32-8.32 0-4.8-3.36-8.32-8.32-8.32h-8.8c-2.48 0-4.16-1.68-4.16-4.16 0-2.48 1.68-4.16 4.16-4.16h14.64v-4.16h-15.12c-4.96 0-8.32 3.92-8.32 8.32 0 4.8 3.36 8.32 8.32 8.32h8.8c2.48 0 4.16 1.68 4.16 4.16 0 2.48-1.68 4.16-4.16 4.16h-16.64v4.16zm37.105.4c2.08 0 3.92-.72 4.96-1.84v1.44h4.4v-8.32c0-5.2-3.76-8.72-8.96-8.72-4.8 0-8.96 3.92-8.96 8.72 0 5.2 3.52 8.72 8.56 8.72zm.4-4.16c-2.56 0-4.48-2-4.48-4.56 0-2.64 1.92-4.56 4.48-4.56 2.64 0 4.48 1.92 4.48 4.56 0 2.56-1.84 4.56-4.48 4.56zm14.227 3.76h4.48v-29.12h-4.48v29.12zm17.522.4c2.08 0 3.92-.72 4.96-1.84v1.44h4.4v-8.32c0-5.2-3.76-8.72-8.96-8.72-4.8 0-8.96 3.92-8.96 8.72 0 5.2 3.52 8.72 8.56 8.72zm.4-4.16c-2.56 0-4.48-2-4.48-4.56 0-2.64 1.92-4.56 4.48-4.56 2.64 0 4.48 1.92 4.48 4.56 0 2.56-1.84 4.56-4.48 4.56zm21.445 4.16c4.8 0 8.96-3.92 8.96-8.72v-20.8h-4.48v13.52c-1.44-1.04-3.04-1.44-4.72-1.44-4.72 0-8.72 3.92-8.72 8.72 0 5.2 3.76 8.72 8.96 8.72zm0-4.16c-2.56 0-4.48-2-4.48-4.56 0-2.64 1.92-4.56 4.48-4.56 2.64 0 4.48 1.92 4.48 4.56 0 2.56-1.84 4.56-4.48 4.56z" fill="#159741"/></svg>