<svg width="118" height="63" fill="none" xmlns="http://www.w3.org/2000/svg"><path d="M117.871 31.5c0 4.137-1.499 8.233-4.409 12.054-2.911 3.822-7.177 7.295-12.556 10.22-5.378 2.925-11.763 5.245-18.79 6.828C75.089 62.185 67.557 63 59.951 63s-15.138-.815-22.165-2.398c-7.027-1.583-13.412-3.903-18.79-6.828-5.378-2.925-9.645-6.398-12.555-10.22C3.53 39.733 2.03 35.637 2.03 31.5h115.84zM3.05 14.08h1.187V7.695H6.98V6.63H.307v1.064H3.05v6.387zm4.953 0H9.19v-3.193h5.26V9.823H9.19V7.694h5.343V6.63h-6.55v4.257l.02 3.194zm17.58 14.287c5.847 0 10.776-4.872 10.776-10.718H25.583v2.98h6.82c-1.088 2.752-3.667 4.7-6.82 4.7-4.241 0-7.393-3.439-7.393-7.68s3.152-7.68 7.393-7.68c2.178 0 4.013.86 5.33 2.293l2.293-2.293c-1.891-1.834-4.47-3.038-7.623-3.038-5.903 0-10.832 4.815-10.832 10.718 0 6.362 4.47 10.718 10.832 10.718zm18.803 0c1.49 0 2.809-.516 3.554-1.318v1.032h3.152V22.12c0-3.726-2.694-6.248-6.419-6.248-3.439 0-6.42 2.809-6.42 6.248 0 3.725 2.523 6.247 6.133 6.247zm.287-2.98c-1.834 0-3.21-1.433-3.21-3.267 0-1.892 1.376-3.267 3.21-3.267 1.891 0 3.21 1.375 3.21 3.267 0 1.834-1.319 3.267-3.21 3.267zm9.518 2.694h3.21V20.63c0-.918.63-1.49 1.49-1.49h.917v-2.981h-1.146c-2.58 0-4.47 1.834-4.47 4.47v7.452zm14.102.286c3.44 0 6.42-2.808 6.42-6.247V7.218h-3.21v9.686c-1.032-.745-2.178-1.032-3.382-1.032-3.381 0-6.247 2.809-6.247 6.248 0 3.725 2.694 6.247 6.42 6.247zm0-2.98c-1.834 0-3.21-1.433-3.21-3.267 0-1.892 1.376-3.267 3.21-3.267 1.892 0 3.21 1.375 3.21 3.267 0 1.834-1.318 3.267-3.21 3.267zm15.7 2.98c1.72 0 3.267-.688 4.414-1.834l-1.949-2.006c-.86.802-1.433 1.089-2.465 1.089-1.604 0-2.865-.974-3.266-2.407h9.686v-1.09c-.23-3.897-2.694-6.247-6.42-6.247-3.438 0-6.419 2.809-6.419 6.248 0 3.725 2.694 6.247 6.42 6.247zm-3.21-7.623c.46-1.318 1.606-2.292 3.21-2.292 1.663 0 2.809.917 3.267 2.292h-6.476zm12.197 7.337h3.21V22.12c0-1.892 1.375-3.267 3.21-3.267 1.891 0 3.209 1.375 3.209 3.267v5.96h3.21v-5.96c0-3.726-2.637-6.248-6.362-6.248-3.267 0-6.477 2.522-6.477 6.248v5.96z" fill="#fff"/><path d="M24.082 55.516h12.266c3.553 0 5.96-2.866 5.96-5.96 0-3.44-2.407-5.962-5.96-5.962h-6.305c-1.777 0-2.98-1.203-2.98-2.98s1.203-2.98 2.98-2.98h10.489v-2.98H29.699c-3.554 0-5.96 2.808-5.96 5.96 0 3.439 2.406 5.96 5.96 5.96h6.305c1.777 0 2.98 1.205 2.98 2.981 0 1.777-1.203 2.98-2.98 2.98H24.082v2.981zm26.584.287c1.49 0 2.808-.516 3.553-1.319v1.032h3.153v-5.96c0-3.726-2.694-6.248-6.42-6.248-3.438 0-6.419 2.808-6.419 6.247 0 3.726 2.522 6.248 6.133 6.248zm.287-2.98c-1.835 0-3.21-1.434-3.21-3.268 0-1.891 1.375-3.267 3.21-3.267 1.891 0 3.21 1.376 3.21 3.267 0 1.834-1.319 3.267-3.21 3.267zm10.192 2.693h3.21V34.653h-3.21v20.863zm12.554.287c1.49 0 2.808-.516 3.553-1.319v1.032h3.153v-5.96c0-3.726-2.694-6.248-6.42-6.248-3.439 0-6.42 2.808-6.42 6.247 0 3.726 2.523 6.248 6.134 6.248zm.286-2.98c-1.834 0-3.21-1.434-3.21-3.268 0-1.891 1.376-3.267 3.21-3.267 1.891 0 3.21 1.376 3.21 3.267 0 1.834-1.319 3.267-3.21 3.267zm15.365 2.98c3.438 0 6.419-2.809 6.419-6.248V34.653h-3.21v9.687c-1.031-.746-2.178-1.032-3.381-1.032-3.382 0-6.248 2.808-6.248 6.247 0 3.726 2.694 6.248 6.42 6.248zm0-2.98c-1.835 0-3.21-1.434-3.21-3.268 0-1.891 1.375-3.267 3.21-3.267 1.89 0 3.21 1.376 3.21 3.267 0 1.834-1.32 3.267-3.21 3.267z" fill="#159741"/></svg>