<svg width="314" height="101" fill="none" xmlns="http://www.w3.org/2000/svg"><path transform="matrix(.99369 -.11219 -.00009 1 2.506 79.842)" stroke="#159741" d="M0-.5h313.077"/><path transform="matrix(.99369 -.11219 -.00009 1 2.235 85.536)" stroke="#159741" d="M0-.5h313.077"/><path d="M6.011 77.75c-.621.067-1.005.03-1.151-.111-.17-.113-.225-.382-.166-.807.012-.133.078-.73.2-1.79.123-1.035.273-2.308.45-3.82.206-1.49.41-3.11.614-4.86.23-1.754.444-3.401.644-4.942-.538.11-.944.115-1.216.014-.276-.128-.427-.308-.452-.54-.002-.262.112-.537.343-.824.257-.29.635-.553 1.133-.79.098-.063.248-.132.45-.206.08-.454.148-.92.202-1.397.061-.4.12-.825.176-1.276.056-.451.113-.89.172-1.315L8.872 43.18c.091-.612.276-1.078.556-1.396.303-.347.884-.672 1.742-.974.705-.26 1.203-.379 1.493-.358.288-.005.426.06.414.191-.047.294-.167 1-.36 2.122a656.553 656.553 0 00-.694 4.121 907.962 907.962 0 00-.8 5.313 596.17 596.17 0 00-.836 5.708c1.528-.4 3.397-.799 5.607-1.195.843-.196 1.665-.35 2.464-.463a36.38 36.38 0 012.37-.256c.21-1.437.409-2.873.594-4.307.212-1.438.408-2.769.59-3.993.182-1.225.34-2.303.475-3.234.158-.96.278-1.667.36-2.121.102-.509.201-.926.297-1.25.122-.328.263-.592.425-.793.187-.203.407-.358.657-.464.25-.105.541-.202.872-.29.181-.02.4-.057.656-.11l.738-.08c.282-.057.607-.079.975-.066a163.948 163.948 0 00-1.887 8.337 361.462 361.462 0 00-1.478 8.135c.472.002.878-.003 1.217-.013a5.26 5.26 0 01.867.024c.632.036 1.039.163 1.22.379.206.213.19.555-.046 1.026l-.404.633c-.133.224-.3.491-.502.801-.205.284-.47.614-.797.99-.215-.056-.444-.11-.685-.162l-.647-.166c-.267-.05-.522-.1-.763-.153a66.575 66.575 0 00-.307 1.88 34.665 34.665 0 00-.238 1.794c-.174 1.302-.33 2.641-.47 4.018-.106 1.19-.214 2.499-.321 3.925a62.424 62.424 0 00-.09 4.253 1.928 1.928 0 01-.6.261 7.182 7.182 0 01-.532.176l-.535.136-.039.004-.078.009-.077.008-.31.034a.693.693 0 01-.32-.044 2.226 2.226 0 01-.401-.075l-.405-.113a1.33 1.33 0 01-.366-.118 24.59 24.59 0 00.205-2.458 26.05 26.05 0 00.058-2.01 28.14 28.14 0 00-.038-1.803c-.047-.676-.205-1.406-.473-2.189a10.21 10.21 0 00-1.033-2.285 10.28 10.28 0 00-1.517-2.036 7.69 7.69 0 00-1.893-1.524c-.695-.37-1.348-.588-1.957-.653a5.666 5.666 0 00-1.76.072c-.097.796-.184 1.565-.261 2.307a36.927 36.927 0 00-.162 2.14 592.538 592.538 0 00-.34 4.476 405.37 405.37 0 01-.253 3.838 78.144 78.144 0 00-.1 3.43 7.003 7.003 0 01-1.115.591 6.292 6.292 0 01-.942.377 3.697 3.697 0 01-.88.213zm13.514-18.905c-.917-.006-1.79.036-2.619.126-.805.06-1.519.125-2.14.192a4.745 4.745 0 011.481.98c.465.42.95.905 1.454 1.453a7.618 7.618 0 011.203 1.677c.329.62.616 1.217.862 1.793.09-1.11.195-2.195.316-3.256.12-1.06.236-2.055.345-2.984a2.845 2.845 0 00-.47.012 2.194 2.194 0 00-.432.007zm31.7-1.225a115.48 115.48 0 01-1.187 2.092c-.489.813-1.002 1.64-1.539 2.485a37.869 37.869 0 01-1.56 2.29c-.502.683-.933 1.175-1.294 1.476a4.06 4.06 0 01-.85.485c-.326.14-.669.242-1.029.307-.333.062-.66.071-.979.027a2.075 2.075 0 01-.849-.222c-.253-.156-.475-.394-.666-.714-.16-.27-.33-.632-.51-1.084-.155-.455-.257-1.034-.306-1.735-.51 1.102-1.109 1.98-1.798 2.63-.692.625-1.36 1.103-2.006 1.435a8.407 8.407 0 01-2.276.756c-.362.04-.764-.048-1.207-.262-.44-.188-.83-.526-1.17-1.013-.344-.513-.6-1.18-.766-2-.17-.846-.176-1.866-.018-3.062.192-1.619.606-3.117 1.243-4.496.663-1.381 1.41-2.575 2.245-3.582.831-1.033 1.675-1.831 2.53-2.395.856-.564 1.585-.852 2.186-.865.713.054 1.305.2 1.776.437.39.22.665.583.825 1.09.182.477.047 1.16-.407 2.047.354-.117.646-.2.876-.252.256-.054.449-.088.579-.102.155-.016.26-.015.314.006.032.049.057.164.077.345.017.155.01.457-.02.906-.03.448-.082 1.056-.156 1.824s-.176 1.76-.306 2.98c-.027.239-.055.464-.084.677a5.818 5.818 0 01-.054.595 12.45 12.45 0 01-.045.673l-.089.992c0 .236.014.496.045.78.054.257.133.497.235.722.103.224.24.406.413.544.195.11.448.148.759.115.259-.028.579-.22.96-.575a14.31 14.31 0 001.185-1.386 51.23 51.23 0 001.256-1.825c.451-.677.866-1.325 1.244-1.942.379-.617.712-1.164 1.001-1.64.315-.48.54-.831.672-1.055.182-.255.375-.407.58-.456.2-.074.362-.039.482.105.12.145.159.376.115.695-.019.317-.16.699-.426 1.147zm-11.194 2.938c.074-.532.163-1.157.269-1.876.106-.718.188-1.408.248-2.07.059-.66.092-1.201.1-1.621.03-.449-.006-.654-.107-.617a3.61 3.61 0 00-.414.162 2.096 2.096 0 01-.493.171c-.204.049-.407.11-.609.184.163-.437.243-.786.24-1.047.022-.29.01-.512-.032-.665a.928.928 0 00-.201-.41c-.31-.203-.794.046-1.452.746-.635.67-1.33 1.872-2.085 3.604a10.259 10.259 0 00-.697 2.276 14.947 14.947 0 00-.274 2.19 8.482 8.482 0 00.154 1.79c.105.487.244.8.416.938.316.254.655.362 1.017.322.36-.065.711-.207 1.054-.428a6.242 6.242 0 001.042-.898c.355-.353.657-.713.905-1.08.274-.37.487-.707.637-1.012.176-.307.27-.527.282-.66zm22.048-3.286a58.677 58.677 0 01-1.786 3.1 37.63 37.63 0 01-1.785 2.747c-.569.795-1.114 1.443-1.636 1.945-.494.525-.909.805-1.245.842-.803.086-1.504-.218-2.103-.913-.576-.723-1.066-1.626-1.471-2.709a22.618 22.618 0 01-.896-3.557 30.124 30.124 0 01-.335-3.46c-.006-1.022.024-1.837.089-2.446.062-.636.166-1.131.31-1.487.171-.36.377-.63.62-.814a4.48 4.48 0 011.006-.502 3.99 3.99 0 01.609-.183c.23-.051.439-.06.625-.029.21.004.374.065.492.183.117.118.151.311.102.579-.027.238-.08.597-.159 1.077-.056.452-.118.97-.185 1.553-.068.583-.133 1.193-.196 1.828-.036.633-.05 1.237-.04 1.812.03.992.123 1.86.282 2.602.156.716.34 1.325.551 1.826.209.475.418.833.627 1.072.21.24.366.353.47.342.129-.014.344-.207.644-.58.323-.402.674-.911 1.052-1.529.405-.62.812-1.331 1.223-2.136a26.68 26.68 0 001.185-2.485c-.2-.397-.318-.882-.354-1.455-.017-.888.091-1.699.326-2.432.233-.758.516-1.404.852-1.938.36-.537.734-.957 1.12-1.26.41-.333.783-.518 1.12-.554.672-.073 1.106.064 1.3.41.219.317.321.66.309 1.027.006.55-.158 1.327-.495 2.332-.313.977-.746 2.059-1.299 3.245.135.037.283.074.444.109.161.035.345.041.552.019.88-.095 1.659-.284 2.336-.567.702-.285 1.297-.599 1.784-.94.513-.343.934-.69 1.263-1.04.352-.378.633-.683.843-.916.139-.172.286-.266.441-.283a.633.633 0 01.401.075c.112.066.177.177.193.332.017.156-.042.332-.178.53a10.839 10.839 0 01-3.12 3.127c-1.244.842-2.76 1.36-4.546 1.552a5.362 5.362 0 01-.587.024c-.236 0-.487-.026-.755-.075zm25.087-3.89a31.263 31.263 0 01-2.28 3.625 25.378 25.378 0 01-2.834 3.214 16.999 16.999 0 01-3.16 2.385c-1.084.64-2.17 1.02-3.257 1.137-.57.062-1.206-.013-1.91-.226-.675-.188-1.316-.538-1.921-1.05-.605-.51-1.125-1.2-1.56-2.07-.409-.873-.618-1.963-.629-3.272-.011-1.072.192-2.22.61-3.445a16.278 16.278 0 011.705-3.484 12.312 12.312 0 012.493-2.745c.965-.759 1.966-1.195 3.002-1.306.983-.107 1.722.062 2.215.506.494.445.754 1.032.78 1.763a5.452 5.452 0 01-.46 2.29 8.472 8.472 0 01-1.122 1.967c-.46.6-.962 1.152-1.51 1.656-.522.502-1.023.962-1.501 1.38-.528.45-1.03.885-1.51 1.303-.481.393-.9.752-1.258 1.079.096.644.271 1.175.526 1.593.255.418.553.752.894 1.004.34.225.71.382 1.112.469.425.059.845.066 1.26.021.88-.095 1.77-.466 2.669-1.114a20.145 20.145 0 002.577-2.321 29.39 29.39 0 002.295-2.763 51.53 51.53 0 001.74-2.427c.16-.227.328-.363.507-.409.201-.074.36-.065.474.028.138.063.22.212.245.445.022.207-.042.463-.192.767zm-10.59-4.906c-.31.033-.669.23-1.075.587-.38.356-.746.854-1.096 1.494-.353.614-.664 1.368-.934 2.262-.273.867-.44 1.855-.505 2.962.286-.267.597-.536.935-.808.334-.298.667-.61.999-.933 1.02-.975 1.716-1.81 2.086-2.505.37-.694.556-1.278.557-1.75-.001-.497-.09-.84-.268-1.031a.753.753 0 00-.698-.278zm42.877 1.77c-.306.557-.702 1.255-1.188 2.093-.488.813-1.001 1.64-1.538 2.485a37.503 37.503 0 01-1.56 2.29c-.502.683-.934 1.175-1.294 1.476a4.071 4.071 0 01-.851.484 4.73 4.73 0 01-1.028.308 3.04 3.04 0 01-.979.027 2.076 2.076 0 01-.849-.222c-.253-.156-.475-.394-.667-.714a8.02 8.02 0 01-.51-1.084c-.154-.455-.256-1.034-.306-1.735-.509 1.102-1.108 1.98-1.797 2.63-.692.625-1.361 1.103-2.006 1.435a8.415 8.415 0 01-2.276.756c-.362.04-.765-.048-1.207-.262-.439-.188-.829-.526-1.17-1.013-.344-.513-.6-1.18-.767-2-.17-.846-.175-1.867-.017-3.062.192-1.619.606-3.117 1.243-4.496.662-1.381 1.411-2.575 2.245-3.582.831-1.033 1.674-1.831 2.53-2.395.856-.564 1.584-.852 2.185-.865.713.054 1.305.2 1.776.437.391.22.666.583.826 1.09.182.477.047 1.16-.408 2.047.355-.117.647-.2.877-.252.256-.054.449-.088.578-.102.156-.016.261-.015.315.006.032.049.057.164.077.345.017.155.01.457-.02.906-.03.448-.082 1.056-.156 1.824s-.177 1.76-.307 2.98c-.026.238-.054.464-.084.677a5.838 5.838 0 01-.053.595 11.98 11.98 0 01-.045.673l-.089.992a6.99 6.99 0 00.045.78c.054.257.132.497.235.722.103.224.241.406.413.544.195.11.448.148.759.115.258-.028.578-.22.959-.575a14.17 14.17 0 001.186-1.386 51.23 51.23 0 001.256-1.825c.451-.677.865-1.325 1.244-1.942.378-.617.712-1.164 1.001-1.64.315-.48.539-.831.672-1.055.182-.255.375-.407.579-.456.202-.074.363-.039.483.105.12.145.158.376.114.695-.018.316-.16.699-.426 1.146zm-11.194 2.939c.074-.532.163-1.157.269-1.876.105-.718.188-1.408.247-2.07.06-.66.093-1.201.1-1.621.03-.449-.005-.654-.106-.617-.127.04-.265.094-.415.162a2.105 2.105 0 01-.492.171 5.32 5.32 0 00-.609.184c.162-.437.243-.786.24-1.047.021-.29.011-.512-.032-.665a.931.931 0 00-.202-.41c-.31-.203-.794.046-1.451.746-.635.67-1.33 1.872-2.086 3.604a10.284 10.284 0 00-.696 2.276 14.948 14.948 0 00-.274 2.19 8.459 8.459 0 00.154 1.79c.105.487.244.8.416.938.316.254.655.362 1.017.323.36-.066.711-.208 1.054-.429a6.282 6.282 0 001.042-.898c.355-.353.656-.713.905-1.08a6.87 6.87 0 00.637-1.012c.176-.307.27-.527.282-.66zm36.191 3.161c-.596.065-1.126.004-1.591-.181a2.72 2.72 0 01-1.103-.746 2.954 2.954 0 01-.639-1.188 3.996 3.996 0 01-.09-1.562c.038-.37.116-.864.233-1.479.114-.64.223-1.32.329-2.04.129-.746.233-1.478.313-2.194.102-.744.149-1.404.139-1.98-.013-.6-.09-1.077-.233-1.428-.146-.377-.387-.547-.723-.511-.415.045-.826.233-1.236.566-.412.306-.826.718-1.241 1.234-.39.513-.784 1.106-1.183 1.778a57.755 57.755 0 00-1.119 2.007 74.365 74.365 0 00-.33 2.393 471.72 471.72 0 00-.234 1.832 30.764 30.764 0 01-.16 1.432c-.061.4-.111.785-.15 1.156-.049.267-.254.551-.615.852a6.834 6.834 0 01-1.18.717c-.423.203-.79.32-1.101.355-.336.036-.491-.065-.465-.304.01-.158.062-.517.159-1.078.07-.557.17-1.21.299-1.957.1-.77.209-1.581.326-2.432.118-.851.226-1.662.326-2.432l.213-2.027c.062-.635.139-1.377.231-2.225.117-.851.252-1.782.405-2.794a2.13 2.13 0 01.506-.408c.196-.126.394-.227.596-.3.199-.1.413-.176.643-.227.208-.023.416-.032.626-.029.184.007.371.039.561.097.212.03.403.1.573.213-.058.19-.121.458-.188.806-.07.322-.137.67-.202 1.043a14.26 14.26 0 01-.249 1.324c.286-.502.611-1.009.975-1.52.387-.54.805-1.03 1.255-1.471a7.413 7.413 0 011.53-1.109 4.21 4.21 0 011.706-.577c.492-.053.947.042 1.366.285.42.242.761.612 1.024 1.107.286.467.48 1.048.582 1.745.127.693.119 1.467-.024 2.32l-.243 1.755a58.58 58.58 0 01-.294 1.996 37.313 37.313 0 01-.439 2.484c-.094.586-.105 1.085-.035 1.497.097.408.378.587.844.537.466-.05 1.018-.398 1.656-1.043a17.78 17.78 0 001.952-2.293 44.804 44.804 0 001.793-2.67c.555-.924.973-1.663 1.253-2.217.197-.362.393-.606.589-.732.196-.126.35-.156.462-.09.138.064.222.239.253.524.028.259-.039.606-.201 1.043a15.59 15.59 0 01-.699 1.53 21.53 21.53 0 01-1.115 2.045 53.37 53.37 0 01-1.447 2.239 21.226 21.226 0 01-1.663 2.065 10.787 10.787 0 01-1.799 1.53c-.582.43-1.158.676-1.727.737zm14.788-25.722a2.353 2.353 0 01-.374.905 3.016 3.016 0 01-.666.74 2.441 2.441 0 01-.782.399c-.28.082-.518.056-.716-.08-.589-.356-.921-.765-.997-1.228-.08-.49-.012-.955.202-1.397.211-.468.496-.866.853-1.193.355-.352.672-.57.951-.652.279-.083.519-.043.72.118.224.133.403.336.538.61.131.248.215.54.252.876.062.334.068.635.019.902zm-4.465 8.851c.113-.17.345-.325.696-.468a7.91 7.91 0 011.101-.355c.38-.12.725-.196 1.036-.23.334-.062.528-.083.583-.062.028.023-.007.302-.106.836-.1.535-.228 1.164-.385 1.888-.158.725-.325 1.476-.503 2.255-.18.753-.31 1.37-.389 1.85a67.88 67.88 0 01-.294 1.642 42.69 42.69 0 00-.32 1.763 12.353 12.353 0 00-.104 1.583c.002.498.081.869.239 1.114.163.297.329.501.498.614a.9.9 0 00.522.1c.518-.055 1.134-.41 1.849-1.064a20.913 20.913 0 002.19-2.28 39.628 39.628 0 002.03-2.655c.61-.904 1.056-1.62 1.34-2.148.179-.281.368-.472.566-.572.225-.103.408-.11.548-.02.167.087.263.247.288.48.051.23.003.51-.145.84-.336.77-.85 1.703-1.544 2.8a44.569 44.569 0 01-2.252 3.15 23.61 23.61 0 01-2.428 2.62c-.784.74-1.447 1.152-1.988 1.236a2.99 2.99 0 01-1.345-.09 4.392 4.392 0 01-1.237-.534 4.797 4.797 0 01-.968-.956 2.977 2.977 0 01-.527-1.24c-.147-.639-.242-1.52-.285-2.64a32.386 32.386 0 01.053-3.503c.078-1.214.215-2.368.411-3.463.222-1.098.512-1.928.87-2.49zm17.756 11.519c.803-.087 1.649-.493 2.54-1.218a20.929 20.929 0 002.592-2.559 29.754 29.754 0 002.242-2.874c.679-.99 1.183-1.779 1.513-2.364.196-.362.395-.58.597-.654.199-.1.357-.091.474.027.118.119.179.322.184.61.002.26-.082.571-.253.93-.147.33-.409.817-.785 1.46a31.944 31.944 0 01-1.309 2.067 28.86 28.86 0 01-1.753 2.31 23.437 23.437 0 01-2.082 2.19 13.282 13.282 0 01-2.334 1.667c-.812.48-1.633.766-2.461.855-1.139.123-2.121.007-2.945-.35a5.32 5.32 0 01-2.002-1.433 6.75 6.75 0 01-1.172-2.113 11.432 11.432 0 01-.536-2.417c-.087-.803-.014-1.82.22-3.05.233-1.23.641-2.426 1.222-3.59a10.566 10.566 0 012.412-3.128c1.001-.92 2.239-1.46 3.715-1.62.828-.089 1.558.12 2.189.628.657.506 1.026 1.252 1.107 2.238.05.466.023.94-.082 1.423a4.855 4.855 0 01-.491 1.272c-.223.364-.504.67-.844.916a2.116 2.116 0 01-1.093.432c-.336.037-.608-.052-.814-.265a2.43 2.43 0 01-.403-.821 5.95 5.95 0 01-.105-.971c.018-.316.047-.53.088-.638.11-.196.238-.34.385-.435l.514-.33a.767.767 0 00.312-.388.9.9 0 00.101-.521.728.728 0 00-.206-.45c-.118-.118-.293-.164-.526-.14-.233.026-.639.266-1.218.722-.557.427-1.118 1.05-1.684 1.871-.543.792-1 1.772-1.372 2.938-.371 1.167-.49 2.489-.356 3.968.066.857.259 1.543.576 2.059.318.516.688.908 1.11 1.177a3.59 3.59 0 001.353.521c.48.08.94.095 1.38.048zm26.695-9.722a31.217 31.217 0 01-2.279 3.626 25.362 25.362 0 01-2.835 3.213 17.004 17.004 0 01-3.16 2.385c-1.083.64-2.169 1.02-3.256 1.138-.57.061-1.207-.014-1.911-.226-.675-.189-1.315-.539-1.92-1.05-.606-.51-1.126-1.2-1.56-2.07-.409-.873-.619-1.964-.629-3.272-.012-1.073.191-2.221.609-3.445a16.245 16.245 0 011.706-3.485 12.323 12.323 0 012.492-2.744c.966-.76 1.966-1.195 3.002-1.307.984-.106 1.723.063 2.216.507.493.444.753 1.032.78 1.762a5.447 5.447 0 01-.46 2.29 8.445 8.445 0 01-1.123 1.967c-.459.6-.962 1.152-1.51 1.657a44.29 44.29 0 01-1.501 1.38c-.527.45-1.03.884-1.509 1.302-.481.393-.901.753-1.258 1.08.095.644.271 1.175.526 1.593.254.417.552.752.894 1.003.339.225.709.382 1.112.47a5.16 5.16 0 001.259.02c.88-.095 1.77-.466 2.669-1.113a20.1 20.1 0 002.578-2.322 29.413 29.413 0 002.294-2.762c.71-.941 1.291-1.75 1.741-2.428.159-.227.328-.363.506-.408.202-.074.36-.065.475.027.138.064.219.212.244.445.023.207-.041.463-.192.767zm-10.589-4.906c-.311.034-.669.23-1.076.588-.38.355-.746.853-1.095 1.493-.353.615-.664 1.369-.934 2.262-.273.868-.441 1.855-.505 2.962.285-.266.597-.536.934-.808.335-.298.668-.61.999-.933 1.021-.975 1.717-1.81 2.087-2.504.37-.695.556-1.278.557-1.75-.001-.498-.091-.842-.269-1.032a.752.752 0 00-.698-.278zm35.337 2.9a133.53 133.53 0 01-.14 2.333 22.242 22.242 0 00-.005 1.769c.044.65.211 1.103.501 1.36.289.257.59.368.9.335.363-.04.783-.268 1.262-.686a14.644 14.644 0 001.562-1.544 29.584 29.584 0 001.593-1.98 79.122 79.122 0 001.433-2.001 33.09 33.09 0 001.114-1.692c.315-.48.53-.791.645-.934.139-.173.285-.28.437-.323.179-.045.324-.035.436.032.112.066.179.203.201.41.023.207-.053.477-.226.81a32.658 32.658 0 01-1.015 1.878 47 47 0 01-1.413 2.196 35.49 35.49 0 01-1.68 2.264c-.575.743-1.17 1.41-1.788 2a10.86 10.86 0 01-1.768 1.449c-.559.4-1.085.628-1.577.68a1.985 1.985 0 01-1.082-.196 3.631 3.631 0 01-.942-.724 4.33 4.33 0 01-.744-1.059 3.425 3.425 0 01-.289-1.226c.006-.184.011-.499.015-.944-.956 1.334-1.951 2.424-2.986 3.27-1.012.816-2.022 1.278-3.032 1.388-.363.039-.761-.01-1.195-.146-.433-.137-.841-.394-1.222-.772-.356-.38-.674-.896-.954-1.547-.28-.65-.446-1.458-.497-2.421-.085-1.51.058-2.967.431-4.369.372-1.402.893-2.637 1.563-3.705.694-1.097 1.501-1.983 2.424-2.659.945-.704 1.923-1.111 2.932-1.22.44-.048.854.025 1.242.22.385.167.726.418 1.025.753.295.308.543.661.743 1.059.226.395.397.769.514 1.123.1-.77.189-1.526.266-2.268a89.1 89.1 0 01.243-2.109c.155-.986.315-2.05.479-3.195l.536-3.397c.203-1.28.437-2.628.702-4.045.237-.235.466-.417.688-.545.222-.13.433-.23.635-.305.224-.102.44-.165.647-.188.259-.027.497-.014.712.041.213.03.399.18.56.45.183.243.33.633.441 1.171.11.538.19 1.276.239 2.214.072 1.145-.001 2.41-.218 3.795a34.492 34.492 0 01-.905 4.341 49.19 49.19 0 01-1.515 4.525 42.052 42.052 0 01-1.928 4.334zm-2.236.752c.05-.503.087-1.005.112-1.505.05-.503.112-1.02.186-1.552l-.147.094a.46.46 0 01-.109.09c-.27.16-.464.182-.582.063-.12-.144-.197-.371-.231-.682a14.504 14.504 0 00-.127-.811 5.267 5.267 0 00-.368-1.218 3.019 3.019 0 00-.626-1.071 1.124 1.124 0 00-1.026-.4c-.595.064-1.17.44-1.724 1.129-.557.663-1.06 1.463-1.508 2.402a14.41 14.41 0 00-1.061 2.905c-.256 1.023-.368 1.925-.336 2.708.083 1.248.335 2.124.756 2.63.421.504.943.722 1.564.655.466-.05.951-.286 1.456-.707a9.685 9.685 0 001.488-1.497c.488-.576.922-1.16 1.303-1.752.408-.594.734-1.087.98-1.48zm30.988-4.174c-.306.557-.702 1.255-1.188 2.093-.488.813-1.001 1.64-1.538 2.485a37.962 37.962 0 01-1.56 2.29c-.502.683-.934 1.175-1.294 1.476a4.062 4.062 0 01-.851.484 4.72 4.72 0 01-1.028.308c-.334.062-.66.071-.979.027a2.075 2.075 0 01-.849-.222c-.253-.156-.475-.394-.667-.714-.16-.27-.33-.632-.51-1.084-.154-.455-.256-1.034-.306-1.735-.509 1.102-1.108 1.98-1.797 2.63-.692.625-1.361 1.103-2.006 1.435a8.412 8.412 0 01-2.276.756c-.362.04-.765-.048-1.207-.262-.439-.188-.829-.526-1.17-1.013-.344-.513-.599-1.18-.767-2-.17-.846-.175-1.867-.017-3.062.192-1.619.606-3.117 1.243-4.496.662-1.381 1.411-2.575 2.245-3.582.831-1.033 1.674-1.831 2.53-2.395.856-.564 1.584-.852 2.185-.865.713.054 1.305.2 1.776.437.391.22.666.583.826 1.09.182.477.046 1.16-.408 2.047.354-.117.647-.2.877-.252.256-.054.449-.088.578-.102.156-.016.261-.015.315.006.032.049.057.164.077.345.017.155.01.457-.02.906-.03.448-.082 1.056-.156 1.824-.075.768-.177 1.76-.307 2.98-.026.238-.054.464-.084.677a5.838 5.838 0 01-.053.595 11.98 11.98 0 01-.045.673l-.089.992a6.99 6.99 0 00.045.78c.054.257.132.497.235.722.103.224.24.406.413.544.195.11.448.148.759.115.258-.028.578-.22.959-.575a14.17 14.17 0 001.186-1.386 51.23 51.23 0 001.256-1.825c.451-.677.865-1.325 1.244-1.942.378-.617.712-1.164 1.001-1.64.315-.48.539-.831.672-1.055.182-.255.375-.407.579-.456.202-.074.363-.039.483.105.12.145.158.376.114.695-.018.317-.16.699-.426 1.146zm-11.194 2.939c.074-.532.163-1.157.269-1.876.105-.718.188-1.408.247-2.07.06-.66.093-1.201.1-1.621.03-.449-.005-.654-.106-.617-.127.04-.265.094-.415.162a2.1 2.1 0 01-.492.171 5.32 5.32 0 00-.609.184c.162-.437.243-.786.24-1.047.021-.29.011-.512-.032-.665a.933.933 0 00-.202-.41c-.31-.203-.794.046-1.451.746-.635.671-1.33 1.872-2.086 3.604a10.285 10.285 0 00-.696 2.276 14.811 14.811 0 00-.274 2.19 8.458 8.458 0 00.154 1.79c.105.487.244.8.416.938.316.254.655.362 1.017.323.36-.066.711-.208 1.054-.429a6.282 6.282 0 001.042-.898c.355-.353.656-.713.905-1.08.274-.37.486-.708.637-1.012.176-.307.27-.527.282-.66zm20.085-10.54c.308-.294.611-.524.908-.687.319-.191.606-.327.859-.407a2.43 2.43 0 01.846-.17c.705-.024 1.156.15 1.353.522.223.369.317.987.28 1.855-.031.45-.126 1.022-.286 1.72-.16.7-.342 1.557-.547 2.575a117.63 117.63 0 00-.652 3.41 64.726 64.726 0 00-.517 4.299 181.097 181.097 0 00-.535 4.497l-.559 5.365c-.193 2.09-.393 4.482-.599 7.176-.059.661-.304 1.068-.733 1.219-.403.148-.848.144-1.337-.013a3.57 3.57 0 01-.543-.295 8.574 8.574 0 01-.477-.42c-.172-.138-.326-.344-.46-.618.36-2.24.664-4.276.911-6.11.272-1.837.519-3.435.738-4.794.223-1.57.437-2.981.642-4.234a45.7 45.7 0 00.178-1.63c.07-.558.142-1.103.216-1.635-.278.58-.585 1.137-.92 1.671a7.533 7.533 0 01-1.143 1.42c-.426.413-.902.74-1.426.98a3.184 3.184 0 01-1.61.37c-1.418-.03-2.471-.44-3.159-1.23-.662-.793-1.028-1.88-1.099-3.26a12.09 12.09 0 01.04-1.812c.059-.661.134-1.298.225-1.91.091-.613.176-1.159.255-1.639.102-.509.181-.87.236-1.086.205-1.018.334-1.883.388-2.596.079-.716-.087-1.287-.5-1.714.337-.272.657-.464.959-.575.325-.14.615-.25.868-.33a4.81 4.81 0 01.855-.092c.71.028 1.139.244 1.287.647.175.4.203 1.026.086 1.876-.056.452-.163 1.04-.32 1.764a275.72 275.72 0 01-.511 2.177 99.049 99.049 0 00-.481 2.095c-.143.617-.213 1.057-.211 1.319-.107 1.19-.022 2.098.255 2.723.275.599.762.86 1.461.785.336-.037.696-.22 1.08-.55.38-.355.751-.8 1.112-1.337.387-.54.754-1.143 1.101-1.809.344-.692.65-1.38.916-2.063a18.18 18.18 0 00.726-2.004c.218-.652.365-1.231.441-1.737.078-.977.113-1.74.106-2.29-.007-.55-.242-1.022-.703-1.417zm27.805-18.052c.253-.08.522-.135.807-.166.233-.025.482-.026.747-.002.29.021.56.097.81.227l-3.538 22.502c-.047.293-.249.603-.606.93a5.942 5.942 0 01-1.167.834c-.398.2-.764.33-1.097.393-.311.034-.454-.082-.431-.346.059-.426.183-1.46.372-3.105.079-.716.181-1.591.305-2.626.121-1.06.258-2.333.412-3.817.18-1.486.386-3.21.619-5.174.23-1.99.495-4.258.796-6.805l.019-.552a1.202 1.202 0 00-.046-.427c-.017-.155-.056-.269-.116-.341.182-.255.394-.475.636-.658.24-.21.47-.378.692-.507a16.1 16.1 0 01.786-.36zm-3.145 26.86c.662-.176 1.213-.17 1.653.018.436.163.661.544.673 1.145.011.34-.096.679-.322 1.018-.228.312-.51.605-.848.877-.311.27-.654.49-1.028.661-.349.169-.665.269-.95.3-.544.058-1.023-.008-1.436-.2-.414-.19-.623-.547-.627-1.07-.01-.34.074-.65.253-.932a2.72 2.72 0 01.619-.813 4.66 4.66 0 01.955-.614 5.618 5.618 0 011.058-.39zm15.037-28.145c.253-.08.522-.135.807-.166.233-.025.482-.026.746-.002.291.021.561.097.811.227l-3.538 22.502c-.047.293-.249.603-.607.93a5.887 5.887 0 01-1.167.834c-.397.2-.763.33-1.097.393-.31.034-.454-.082-.43-.346.059-.426.183-1.46.371-3.105.08-.716.182-1.591.306-2.626.121-1.061.258-2.333.412-3.817.179-1.486.386-3.21.619-5.174.23-1.99.495-4.258.796-6.805l.019-.552a1.181 1.181 0 00-.047-.427c-.016-.155-.055-.27-.115-.341.182-.256.394-.475.636-.658.239-.21.47-.378.692-.507.273-.135.535-.255.786-.36zm-3.145 26.86c.662-.176 1.213-.17 1.652.018.437.163.662.544.674 1.145.011.34-.097.679-.322 1.017a4.67 4.67 0 01-.848.878c-.311.27-.654.49-1.029.661-.348.169-.665.269-.95.3-.543.058-1.022-.008-1.435-.2-.414-.19-.623-.547-.627-1.07a1.6 1.6 0 01.253-.932 2.72 2.72 0 01.619-.813c.288-.241.607-.446.955-.614a5.61 5.61 0 011.058-.39z" fill="#159741"/></svg>